<svg xmlns="http://www.w3.org/2000/svg" width="900" height="430" viewBox="0 0 900 430">
<defs><radialGradient id="g" cx="65%" cy="45%" r="55%"><stop stop-color="#ed4d36" stop-opacity=".18"/><stop offset="1" stop-color="#101112" stop-opacity="0"/></radialGradient></defs>
<rect width="900" height="430" fill="#151617"/><rect width="900" height="430" fill="url(#g)"/>
<g stroke="#ffffff" stroke-opacity=".08"><path d="M55 70h790M55 350h790"/><path d="M120 35v360M780 35v360"/></g>
<g stroke="#ed4d36" fill="none" stroke-width="2"><circle cx="565" cy="213" r="72"/><circle cx="565" cy="213" r="120" stroke-opacity=".25"/><path d="M565 93v240M445 213h240"/></g>
<g fill="#eeeae2"><circle cx="565" cy="93" r="7"/><circle cx="685" cy="213" r="7"/><circle cx="565" cy="333" r="7"/><circle cx="445" cy="213" r="7"/></g>
<g stroke="#aaa8a3" stroke-opacity=".45"><path d="M565 213 445 213M565 213 685 213M565 213 565 93M565 213 565 333"/></g>
<g font-family="Arial, Helvetica, sans-serif"><text x="55" y="55" fill="#aaa8a3" font-size="11" letter-spacing="3">PRIVATE AI DESKTOP APPLICATION</text><text x="55" y="185" fill="#eeeae2" font-size="44">IVALDI</text><text x="55" y="224" fill="#ed4d36" font-size="18">CONTROL ROOM FOR AI AGENTS</text><text x="55" y="270" fill="#aaa8a3" font-size="14">TypeScript · Next.js · Electron</text><text x="55" y="294" fill="#aaa8a3" font-size="14">Python · FastAPI · SQLite</text><text x="55" y="374" fill="#77746e" font-size="10" letter-spacing="2">LOCAL-FIRST / MULTI-AGENT / WORKFLOWS</text></g>
</svg>